<?xml version="1.0" encoding="UTF-8" standalone="no"?>
<!DOCTYPE svg PUBLIC "-//W3C//DTD SVG 1.1//EN"
 "http://www.w3.org/Graphics/SVG/1.1/DTD/svg11.dtd">
<!-- Generated by graphviz version 9.0.0 (20230911.1827)
 -->
<!-- Title: states Pages: 1 -->
<svg width="240pt" height="484pt"
 viewBox="0.00 0.00 239.80 484.00" xmlns="http://www.w3.org/2000/svg" xmlns:xlink="http://www.w3.org/1999/xlink">
<g id="graph0" class="graph" transform="scale(1 1) rotate(0) translate(4 480)">
<title>states</title>
<polygon fill="white" stroke="none" points="-4,4 -4,-480 235.8,-480 235.8,4 -4,4"/>
<!-- start -->
<g id="node1" class="node">
<title>start</title>
<ellipse fill="black" stroke="black" cx="116.42" cy="-458" rx="18" ry="18"/>
</g>
<!-- BeginGame -->
<g id="node3" class="node">
<title>BeginGame</title>
<ellipse fill="none" stroke="black" cx="116.42" cy="-386" rx="55.45" ry="18"/>
<text text-anchor="middle" x="116.42" y="-380.95" font-family="Times,serif" font-size="14.00">BeginGame</text>
</g>
<!-- start&#45;&gt;BeginGame -->
<g id="edge1" class="edge">
<title>start&#45;&gt;BeginGame</title>
<path fill="none" stroke="black" d="M116.42,-439.7C116.42,-432.41 116.42,-423.73 116.42,-415.54"/>
<polygon fill="black" stroke="black" points="119.92,-415.62 116.42,-405.62 112.92,-415.62 119.92,-415.62"/>
</g>
<!-- end -->
<g id="node2" class="node">
<title>end</title>
<ellipse fill="black" stroke="black" cx="179.42" cy="-22" rx="18" ry="18"/>
<ellipse fill="none" stroke="black" cx="179.42" cy="-22" rx="22" ry="22"/>
</g>
<!-- BeginDay -->
<g id="node4" class="node">
<title>BeginDay</title>
<ellipse fill="none" stroke="black" cx="116.42" cy="-314" rx="48.28" ry="18"/>
<text text-anchor="middle" x="116.42" y="-308.95" font-family="Times,serif" font-size="14.00">BeginDay</text>
</g>
<!-- BeginGame&#45;&gt;BeginDay -->
<g id="edge2" class="edge">
<title>BeginGame&#45;&gt;BeginDay</title>
<path fill="none" stroke="black" d="M116.42,-367.7C116.42,-360.41 116.42,-351.73 116.42,-343.54"/>
<polygon fill="black" stroke="black" points="119.92,-343.62 116.42,-333.62 112.92,-343.62 119.92,-343.62"/>
</g>
<!-- BeginHiking -->
<g id="node5" class="node">
<title>BeginHiking</title>
<ellipse fill="none" stroke="black" cx="73.42" cy="-242" rx="58.52" ry="18"/>
<text text-anchor="middle" x="73.42" y="-236.95" font-family="Times,serif" font-size="14.00">BeginHiking</text>
</g>
<!-- BeginDay&#45;&gt;BeginHiking -->
<g id="edge3" class="edge">
<title>BeginDay&#45;&gt;BeginHiking</title>
<path fill="none" stroke="black" d="M106.01,-296.05C101.1,-288.06 95.13,-278.33 89.64,-269.4"/>
<polygon fill="black" stroke="black" points="92.74,-267.77 84.53,-261.08 86.78,-271.43 92.74,-267.77"/>
</g>
<!-- BeginTown -->
<g id="node6" class="node">
<title>BeginTown</title>
<ellipse fill="none" stroke="black" cx="54.42" cy="-170" rx="54.42" ry="18"/>
<text text-anchor="middle" x="54.42" y="-164.95" font-family="Times,serif" font-size="14.00">BeginTown</text>
</g>
<!-- BeginHiking&#45;&gt;BeginTown -->
<g id="edge4" class="edge">
<title>BeginHiking&#45;&gt;BeginTown</title>
<path fill="none" stroke="black" d="M62.94,-224.05C60.16,-216.68 57.51,-207.84 55.51,-199.51"/>
<polygon fill="black" stroke="black" points="58.95,-198.84 53.5,-189.76 52.1,-200.26 58.95,-198.84"/>
</g>
<!-- BeginMeal -->
<g id="node7" class="node">
<title>BeginMeal</title>
<ellipse fill="none" stroke="black" cx="179.42" cy="-170" rx="52.38" ry="18"/>
<text text-anchor="middle" x="179.42" y="-164.95" font-family="Times,serif" font-size="14.00">BeginMeal</text>
</g>
<!-- BeginHiking&#45;&gt;BeginMeal -->
<g id="edge5" class="edge">
<title>BeginHiking&#45;&gt;BeginMeal</title>
<path fill="none" stroke="black" d="M97.48,-225.12C112.04,-215.5 130.82,-203.1 146.73,-192.59"/>
<polygon fill="black" stroke="black" points="148.51,-195.61 154.93,-187.17 144.66,-189.76 148.51,-195.61"/>
</g>
<!-- BeginTown&#45;&gt;BeginHiking -->
<g id="edge6" class="edge">
<title>BeginTown&#45;&gt;BeginHiking</title>
<path fill="none" stroke="black" d="M64.96,-188.1C67.72,-195.45 70.36,-204.24 72.34,-212.53"/>
<polygon fill="black" stroke="black" points="68.89,-213.13 74.34,-222.21 75.74,-211.71 68.89,-213.13"/>
</g>
<!-- BeginMeal&#45;&gt;BeginDay -->
<g id="edge7" class="edge">
<title>BeginMeal&#45;&gt;BeginDay</title>
<path fill="none" stroke="black" d="M172.33,-188.14C164.83,-206.13 152.57,-235.17 141.42,-260 137.65,-268.39 133.43,-277.46 129.54,-285.69"/>
<polygon fill="black" stroke="black" points="126.48,-283.99 125.34,-294.52 132.8,-286.99 126.48,-283.99"/>
</g>
<!-- EndGame -->
<g id="node8" class="node">
<title>EndGame</title>
<ellipse fill="none" stroke="black" cx="179.42" cy="-98" rx="48.28" ry="18"/>
<text text-anchor="middle" x="179.42" y="-92.95" font-family="Times,serif" font-size="14.00">EndGame</text>
</g>
<!-- BeginMeal&#45;&gt;EndGame -->
<g id="edge8" class="edge">
<title>BeginMeal&#45;&gt;EndGame</title>
<path fill="none" stroke="black" d="M179.42,-151.7C179.42,-144.41 179.42,-135.73 179.42,-127.54"/>
<polygon fill="black" stroke="black" points="182.92,-127.62 179.42,-117.62 175.92,-127.62 182.92,-127.62"/>
</g>
<!-- EndGame&#45;&gt;end -->
<g id="edge9" class="edge">
<title>EndGame&#45;&gt;end</title>
<path fill="none" stroke="black" d="M179.42,-79.84C179.42,-72.64 179.42,-64.02 179.42,-55.7"/>
<polygon fill="black" stroke="black" points="182.92,-55.82 179.42,-45.82 175.92,-55.82 182.92,-55.82"/>
</g>
</g>
</svg>
