<?xml version="1.0" encoding="UTF-8" standalone="no"?>
<!DOCTYPE svg PUBLIC "-//W3C//DTD SVG 1.1//EN"
 "http://www.w3.org/Graphics/SVG/1.1/DTD/svg11.dtd">
<!-- Generated by graphviz version 9.0.0 (20230911.1827)
 -->
<!-- Title: states Pages: 1 -->
<svg width="119pt" height="196pt"
 viewBox="0.00 0.00 118.89 196.00" xmlns="http://www.w3.org/2000/svg" xmlns:xlink="http://www.w3.org/1999/xlink">
<g id="graph0" class="graph" transform="scale(1 1) rotate(0) translate(4 192)">
<title>states</title>
<polygon fill="white" stroke="none" points="-4,4 -4,-192 114.89,-192 114.89,4 -4,4"/>
<!-- start -->
<g id="node1" class="node">
<title>start</title>
<ellipse fill="black" stroke="black" cx="55.45" cy="-170" rx="18" ry="18"/>
</g>
<!-- BeginGame -->
<g id="node3" class="node">
<title>BeginGame</title>
<ellipse fill="none" stroke="black" cx="55.45" cy="-98" rx="55.45" ry="18"/>
<text text-anchor="middle" x="55.45" y="-92.95" font-family="Times,serif" font-size="14.00">BeginGame</text>
</g>
<!-- start&#45;&gt;BeginGame -->
<g id="edge1" class="edge">
<title>start&#45;&gt;BeginGame</title>
<path fill="none" stroke="black" d="M55.45,-151.7C55.45,-144.41 55.45,-135.73 55.45,-127.54"/>
<polygon fill="black" stroke="black" points="58.95,-127.62 55.45,-117.62 51.95,-127.62 58.95,-127.62"/>
</g>
<!-- end -->
<g id="node2" class="node">
<title>end</title>
<ellipse fill="black" stroke="black" cx="55.45" cy="-22" rx="18" ry="18"/>
<ellipse fill="none" stroke="black" cx="55.45" cy="-22" rx="22" ry="22"/>
</g>
<!-- BeginGame&#45;&gt;end -->
<g id="edge2" class="edge">
<title>BeginGame&#45;&gt;end</title>
<path fill="none" stroke="black" d="M55.45,-79.84C55.45,-72.64 55.45,-64.02 55.45,-55.7"/>
<polygon fill="black" stroke="black" points="58.95,-55.82 55.45,-45.82 51.95,-55.82 58.95,-55.82"/>
</g>
</g>
</svg>
