<?xml version="1.0" encoding="UTF-8" standalone="no"?>
<!DOCTYPE svg PUBLIC "-//W3C//DTD SVG 1.1//EN"
 "http://www.w3.org/Graphics/SVG/1.1/DTD/svg11.dtd">
<!-- Generated by graphviz version 9.0.0 (20230911.1827)
 -->
<!-- Title: states Pages: 1 -->
<svg width="371pt" height="556pt"
 viewBox="0.00 0.00 370.87 556.00" xmlns="http://www.w3.org/2000/svg" xmlns:xlink="http://www.w3.org/1999/xlink">
<g id="graph0" class="graph" transform="scale(1 1) rotate(0) translate(4 552)">
<title>states</title>
<polygon fill="white" stroke="none" points="-4,4 -4,-552 366.87,-552 366.87,4 -4,4"/>
<!-- start -->
<g id="node1" class="node">
<title>start</title>
<ellipse fill="black" stroke="black" cx="268.49" cy="-530" rx="18" ry="18"/>
</g>
<!-- BeginGame -->
<g id="node3" class="node">
<title>BeginGame</title>
<ellipse fill="none" stroke="black" cx="268.49" cy="-458" rx="55.45" ry="18"/>
<text text-anchor="middle" x="268.49" y="-452.95" font-family="Times,serif" font-size="14.00">BeginGame</text>
</g>
<!-- start&#45;&gt;BeginGame -->
<g id="edge1" class="edge">
<title>start&#45;&gt;BeginGame</title>
<path fill="none" stroke="black" d="M268.49,-511.7C268.49,-504.41 268.49,-495.73 268.49,-487.54"/>
<polygon fill="black" stroke="black" points="271.99,-487.62 268.49,-477.62 264.99,-487.62 271.99,-487.62"/>
</g>
<!-- end -->
<g id="node2" class="node">
<title>end</title>
<ellipse fill="black" stroke="black" cx="310.49" cy="-22" rx="18" ry="18"/>
<ellipse fill="none" stroke="black" cx="310.49" cy="-22" rx="22" ry="22"/>
</g>
<!-- BeginDay -->
<g id="node4" class="node">
<title>BeginDay</title>
<ellipse fill="none" stroke="black" cx="268.49" cy="-386" rx="48.28" ry="18"/>
<text text-anchor="middle" x="268.49" y="-380.95" font-family="Times,serif" font-size="14.00">BeginDay</text>
</g>
<!-- BeginGame&#45;&gt;BeginDay -->
<g id="edge2" class="edge">
<title>BeginGame&#45;&gt;BeginDay</title>
<path fill="none" stroke="black" d="M268.49,-439.7C268.49,-432.41 268.49,-423.73 268.49,-415.54"/>
<polygon fill="black" stroke="black" points="271.99,-415.62 268.49,-405.62 264.99,-415.62 271.99,-415.62"/>
</g>
<!-- BeginHiking -->
<g id="node5" class="node">
<title>BeginHiking</title>
<ellipse fill="none" stroke="black" cx="225.49" cy="-314" rx="58.52" ry="18"/>
<text text-anchor="middle" x="225.49" y="-308.95" font-family="Times,serif" font-size="14.00">BeginHiking</text>
</g>
<!-- BeginDay&#45;&gt;BeginHiking -->
<g id="edge3" class="edge">
<title>BeginDay&#45;&gt;BeginHiking</title>
<path fill="none" stroke="black" d="M258.08,-368.05C253.17,-360.06 247.2,-350.33 241.71,-341.4"/>
<polygon fill="black" stroke="black" points="244.82,-339.77 236.6,-333.08 238.85,-343.43 244.82,-339.77"/>
</g>
<!-- BeginTown -->
<g id="node6" class="node">
<title>BeginTown</title>
<ellipse fill="none" stroke="black" cx="145.49" cy="-242" rx="54.42" ry="18"/>
<text text-anchor="middle" x="145.49" y="-236.95" font-family="Times,serif" font-size="14.00">BeginTown</text>
</g>
<!-- BeginHiking&#45;&gt;BeginTown -->
<g id="edge4" class="edge">
<title>BeginHiking&#45;&gt;BeginTown</title>
<path fill="none" stroke="black" d="M206.94,-296.76C196.81,-287.91 184.09,-276.77 172.84,-266.93"/>
<polygon fill="black" stroke="black" points="175.19,-264.34 165.36,-260.39 170.58,-269.61 175.19,-264.34"/>
</g>
<!-- BeginMeal -->
<g id="node7" class="node">
<title>BeginMeal</title>
<ellipse fill="none" stroke="black" cx="310.49" cy="-242" rx="52.38" ry="18"/>
<text text-anchor="middle" x="310.49" y="-236.95" font-family="Times,serif" font-size="14.00">BeginMeal</text>
</g>
<!-- BeginHiking&#45;&gt;BeginMeal -->
<g id="edge5" class="edge">
<title>BeginHiking&#45;&gt;BeginMeal</title>
<path fill="none" stroke="black" d="M245.21,-296.76C256.15,-287.75 269.95,-276.39 282.05,-266.43"/>
<polygon fill="black" stroke="black" points="284.22,-269.17 289.72,-260.11 279.77,-263.76 284.22,-269.17"/>
</g>
<!-- PromptTown -->
<g id="node8" class="node">
<title>PromptTown</title>
<ellipse fill="none" stroke="black" cx="188.49" cy="-170" rx="60.05" ry="18"/>
<text text-anchor="middle" x="188.49" y="-164.95" font-family="Times,serif" font-size="14.00">PromptTown</text>
</g>
<!-- BeginTown&#45;&gt;PromptTown -->
<g id="edge6" class="edge">
<title>BeginTown&#45;&gt;PromptTown</title>
<path fill="none" stroke="black" d="M155.9,-224.05C160.81,-216.06 166.79,-206.33 172.28,-197.4"/>
<polygon fill="black" stroke="black" points="175.14,-199.43 177.39,-189.08 169.17,-195.77 175.14,-199.43"/>
</g>
<!-- BeginMeal&#45;&gt;BeginDay -->
<g id="edge11" class="edge">
<title>BeginMeal&#45;&gt;BeginDay</title>
<path fill="none" stroke="black" d="M308.49,-260.39C306.09,-278.56 301.38,-307.77 293.49,-332 290.65,-340.74 286.69,-349.92 282.77,-358.13"/>
<polygon fill="black" stroke="black" points="279.73,-356.39 278.4,-366.91 285.99,-359.52 279.73,-356.39"/>
</g>
<!-- EndGame -->
<g id="node11" class="node">
<title>EndGame</title>
<ellipse fill="none" stroke="black" cx="310.49" cy="-98" rx="48.28" ry="18"/>
<text text-anchor="middle" x="310.49" y="-92.95" font-family="Times,serif" font-size="14.00">EndGame</text>
</g>
<!-- BeginMeal&#45;&gt;EndGame -->
<g id="edge12" class="edge">
<title>BeginMeal&#45;&gt;EndGame</title>
<path fill="none" stroke="black" d="M310.49,-223.59C310.49,-199.61 310.49,-156.14 310.49,-127.42"/>
<polygon fill="black" stroke="black" points="313.99,-127.62 310.49,-117.62 306.99,-127.62 313.99,-127.62"/>
</g>
<!-- PromptTown&#45;&gt;BeginHiking -->
<g id="edge7" class="edge">
<title>PromptTown&#45;&gt;BeginHiking</title>
<path fill="none" stroke="black" d="M195.74,-187.94C199.92,-198.22 205.02,-211.69 208.49,-224 214.11,-243.93 218.45,-266.89 221.33,-284.5"/>
<polygon fill="black" stroke="black" points="217.85,-284.9 222.86,-294.24 224.77,-283.82 217.85,-284.9"/>
</g>
<!-- PromptFood -->
<g id="node9" class="node">
<title>PromptFood</title>
<ellipse fill="none" stroke="black" cx="57.49" cy="-98" rx="57.49" ry="18"/>
<text text-anchor="middle" x="57.49" y="-92.95" font-family="Times,serif" font-size="14.00">PromptFood</text>
</g>
<!-- PromptTown&#45;&gt;PromptFood -->
<g id="edge8" class="edge">
<title>PromptTown&#45;&gt;PromptFood</title>
<path fill="none" stroke="black" d="M155.76,-154.5C135.98,-144.61 110.94,-131.35 91.03,-120.27"/>
<polygon fill="black" stroke="black" points="92.89,-117.3 82.46,-115.44 89.46,-123.4 92.89,-117.3"/>
</g>
<!-- PromptMap -->
<g id="node10" class="node">
<title>PromptMap</title>
<ellipse fill="none" stroke="black" cx="188.49" cy="-98" rx="55.96" ry="18"/>
<text text-anchor="middle" x="188.49" y="-92.95" font-family="Times,serif" font-size="14.00">PromptMap</text>
</g>
<!-- PromptTown&#45;&gt;PromptMap -->
<g id="edge9" class="edge">
<title>PromptTown&#45;&gt;PromptMap</title>
<path fill="none" stroke="black" d="M182.58,-151.7C181.83,-144.41 181.58,-135.73 181.85,-127.54"/>
<polygon fill="black" stroke="black" points="185.34,-127.82 182.5,-117.61 178.35,-127.36 185.34,-127.82"/>
</g>
<!-- PromptTown&#45;&gt;EndGame -->
<g id="edge10" class="edge">
<title>PromptTown&#45;&gt;EndGame</title>
<path fill="none" stroke="black" d="M215.57,-153.46C233.18,-143.36 256.33,-130.08 275.36,-119.16"/>
<polygon fill="black" stroke="black" points="276.91,-122.3 283.85,-114.29 273.43,-116.23 276.91,-122.3"/>
</g>
<!-- PromptFood&#45;&gt;PromptTown -->
<g id="edge13" class="edge">
<title>PromptFood&#45;&gt;PromptTown</title>
<path fill="none" stroke="black" d="M89.54,-113.16C109.29,-123.02 134.47,-136.34 154.55,-147.51"/>
<polygon fill="black" stroke="black" points="152.78,-150.52 163.21,-152.37 156.21,-144.42 152.78,-150.52"/>
</g>
<!-- PromptMap&#45;&gt;PromptTown -->
<g id="edge14" class="edge">
<title>PromptMap&#45;&gt;PromptTown</title>
<path fill="none" stroke="black" d="M194.39,-116.1C195.15,-123.37 195.4,-132.04 195.15,-140.24"/>
<polygon fill="black" stroke="black" points="191.66,-139.98 194.51,-150.19 198.64,-140.43 191.66,-139.98"/>
</g>
<!-- EndGame&#45;&gt;end -->
<g id="edge15" class="edge">
<title>EndGame&#45;&gt;end</title>
<path fill="none" stroke="black" d="M310.49,-79.84C310.49,-72.64 310.49,-64.02 310.49,-55.7"/>
<polygon fill="black" stroke="black" points="313.99,-55.82 310.49,-45.82 306.99,-55.82 313.99,-55.82"/>
</g>
</g>
</svg>
