<?xml version="1.0" encoding="UTF-8" standalone="no"?>
<!DOCTYPE svg PUBLIC "-//W3C//DTD SVG 1.1//EN"
 "http://www.w3.org/Graphics/SVG/1.1/DTD/svg11.dtd">
<!-- Generated by graphviz version 9.0.0 (20230911.1827)
 -->
<!-- Title: states Pages: 1 -->
<svg width="210pt" height="340pt"
 viewBox="0.00 0.00 209.80 340.00" xmlns="http://www.w3.org/2000/svg" xmlns:xlink="http://www.w3.org/1999/xlink">
<g id="graph0" class="graph" transform="scale(1 1) rotate(0) translate(4 336)">
<title>states</title>
<polygon fill="white" stroke="none" points="-4,4 -4,-336 205.8,-336 205.8,4 -4,4"/>
<!-- start -->
<g id="node1" class="node">
<title>start</title>
<ellipse fill="black" stroke="black" cx="58.52" cy="-314" rx="18" ry="18"/>
</g>
<!-- BeginGame -->
<g id="node3" class="node">
<title>BeginGame</title>
<ellipse fill="none" stroke="black" cx="58.52" cy="-238" rx="55.45" ry="18"/>
<text text-anchor="middle" x="58.52" y="-232.95" font-family="Times,serif" font-size="14.00">BeginGame</text>
</g>
<!-- start&#45;&gt;BeginGame -->
<g id="edge1" class="edge">
<title>start&#45;&gt;BeginGame</title>
<path fill="none" stroke="black" d="M58.52,-295.84C58.52,-287.49 58.52,-277.23 58.52,-267.74"/>
<polygon fill="black" stroke="black" points="62.02,-267.84 58.52,-257.84 55.02,-267.84 62.02,-267.84"/>
</g>
<!-- end -->
<g id="node2" class="node">
<title>end</title>
<ellipse fill="black" stroke="black" cx="153.52" cy="-238" rx="18" ry="18"/>
<ellipse fill="none" stroke="black" cx="153.52" cy="-238" rx="22" ry="22"/>
</g>
<!-- BeginDay -->
<g id="node4" class="node">
<title>BeginDay</title>
<ellipse fill="none" stroke="black" cx="58.52" cy="-162" rx="48.28" ry="18"/>
<text text-anchor="middle" x="58.52" y="-156.95" font-family="Times,serif" font-size="14.00">BeginDay</text>
</g>
<!-- BeginGame&#45;&gt;BeginDay -->
<g id="edge2" class="edge">
<title>BeginGame&#45;&gt;BeginDay</title>
<path fill="none" stroke="black" d="M58.52,-219.84C58.52,-211.49 58.52,-201.23 58.52,-191.74"/>
<polygon fill="black" stroke="black" points="62.02,-191.84 58.52,-181.84 55.02,-191.84 62.02,-191.84"/>
</g>
<!-- BeginHiking -->
<g id="node5" class="node">
<title>BeginHiking</title>
<ellipse fill="none" stroke="black" cx="58.52" cy="-90" rx="58.52" ry="18"/>
<text text-anchor="middle" x="58.52" y="-84.95" font-family="Times,serif" font-size="14.00">BeginHiking</text>
</g>
<!-- BeginDay&#45;&gt;BeginHiking -->
<g id="edge3" class="edge">
<title>BeginDay&#45;&gt;BeginHiking</title>
<path fill="none" stroke="black" d="M52.6,-143.7C51.85,-136.41 51.61,-127.73 51.87,-119.54"/>
<polygon fill="black" stroke="black" points="55.36,-119.82 52.52,-109.61 48.37,-119.36 55.36,-119.82"/>
</g>
<!-- BeginHiking&#45;&gt;BeginDay -->
<g id="edge4" class="edge">
<title>BeginHiking&#45;&gt;BeginDay</title>
<path fill="none" stroke="black" d="M64.41,-108.1C65.17,-115.37 65.43,-124.04 65.17,-132.24"/>
<polygon fill="black" stroke="black" points="61.68,-131.98 64.53,-142.19 68.67,-132.43 61.68,-131.98"/>
</g>
<!-- BeginTown -->
<g id="node6" class="node">
<title>BeginTown</title>
<ellipse fill="none" stroke="black" cx="58.52" cy="-18" rx="54.42" ry="18"/>
<text text-anchor="middle" x="58.52" y="-12.95" font-family="Times,serif" font-size="14.00">BeginTown</text>
</g>
<!-- BeginHiking&#45;&gt;BeginTown -->
<g id="edge5" class="edge">
<title>BeginHiking&#45;&gt;BeginTown</title>
<path fill="none" stroke="black" d="M52.6,-71.7C51.85,-64.41 51.61,-55.73 51.87,-47.54"/>
<polygon fill="black" stroke="black" points="55.36,-47.82 52.52,-37.61 48.37,-47.36 55.36,-47.82"/>
</g>
<!-- BeginTown&#45;&gt;BeginHiking -->
<g id="edge6" class="edge">
<title>BeginTown&#45;&gt;BeginHiking</title>
<path fill="none" stroke="black" d="M64.41,-36.1C65.17,-43.37 65.43,-52.04 65.17,-60.24"/>
<polygon fill="black" stroke="black" points="61.68,-59.98 64.53,-70.19 68.67,-60.43 61.68,-59.98"/>
</g>
<!-- EndGame -->
<g id="node7" class="node">
<title>EndGame</title>
<ellipse fill="none" stroke="black" cx="153.52" cy="-314" rx="48.28" ry="18"/>
<text text-anchor="middle" x="153.52" y="-308.95" font-family="Times,serif" font-size="14.00">EndGame</text>
</g>
<!-- EndGame&#45;&gt;end -->
<g id="edge7" class="edge">
<title>EndGame&#45;&gt;end</title>
<path fill="none" stroke="black" d="M153.52,-295.84C153.52,-288.64 153.52,-280.02 153.52,-271.7"/>
<polygon fill="black" stroke="black" points="157.02,-271.82 153.52,-261.82 150.02,-271.82 157.02,-271.82"/>
</g>
</g>
</svg>
