<?xml version="1.0" encoding="UTF-8" standalone="no"?>
<!DOCTYPE svg PUBLIC "-//W3C//DTD SVG 1.1//EN"
 "http://www.w3.org/Graphics/SVG/1.1/DTD/svg11.dtd">
<!-- Generated by graphviz version 9.0.0 (20230911.1827)
 -->
<!-- Title: states Pages: 1 -->
<svg width="210pt" height="268pt"
 viewBox="0.00 0.00 209.80 268.00" xmlns="http://www.w3.org/2000/svg" xmlns:xlink="http://www.w3.org/1999/xlink">
<g id="graph0" class="graph" transform="scale(1 1) rotate(0) translate(4 264)">
<title>states</title>
<polygon fill="white" stroke="none" points="-4,4 -4,-264 205.8,-264 205.8,4 -4,4"/>
<!-- start -->
<g id="node1" class="node">
<title>start</title>
<ellipse fill="black" stroke="black" cx="58.52" cy="-242" rx="18" ry="18"/>
</g>
<!-- BeginGame -->
<g id="node3" class="node">
<title>BeginGame</title>
<ellipse fill="none" stroke="black" cx="58.52" cy="-166" rx="55.45" ry="18"/>
<text text-anchor="middle" x="58.52" y="-160.95" font-family="Times,serif" font-size="14.00">BeginGame</text>
</g>
<!-- start&#45;&gt;BeginGame -->
<g id="edge1" class="edge">
<title>start&#45;&gt;BeginGame</title>
<path fill="none" stroke="black" d="M58.52,-223.84C58.52,-215.49 58.52,-205.23 58.52,-195.74"/>
<polygon fill="black" stroke="black" points="62.02,-195.84 58.52,-185.84 55.02,-195.84 62.02,-195.84"/>
</g>
<!-- end -->
<g id="node2" class="node">
<title>end</title>
<ellipse fill="black" stroke="black" cx="153.52" cy="-166" rx="18" ry="18"/>
<ellipse fill="none" stroke="black" cx="153.52" cy="-166" rx="22" ry="22"/>
</g>
<!-- BeginDay -->
<g id="node4" class="node">
<title>BeginDay</title>
<ellipse fill="none" stroke="black" cx="58.52" cy="-90" rx="48.28" ry="18"/>
<text text-anchor="middle" x="58.52" y="-84.95" font-family="Times,serif" font-size="14.00">BeginDay</text>
</g>
<!-- BeginGame&#45;&gt;BeginDay -->
<g id="edge2" class="edge">
<title>BeginGame&#45;&gt;BeginDay</title>
<path fill="none" stroke="black" d="M58.52,-147.84C58.52,-139.49 58.52,-129.23 58.52,-119.74"/>
<polygon fill="black" stroke="black" points="62.02,-119.84 58.52,-109.84 55.02,-119.84 62.02,-119.84"/>
</g>
<!-- BeginHiking -->
<g id="node5" class="node">
<title>BeginHiking</title>
<ellipse fill="none" stroke="black" cx="58.52" cy="-18" rx="58.52" ry="18"/>
<text text-anchor="middle" x="58.52" y="-12.95" font-family="Times,serif" font-size="14.00">BeginHiking</text>
</g>
<!-- BeginDay&#45;&gt;BeginHiking -->
<g id="edge3" class="edge">
<title>BeginDay&#45;&gt;BeginHiking</title>
<path fill="none" stroke="black" d="M52.6,-71.7C51.85,-64.41 51.61,-55.73 51.87,-47.54"/>
<polygon fill="black" stroke="black" points="55.36,-47.82 52.52,-37.61 48.37,-47.36 55.36,-47.82"/>
</g>
<!-- BeginHiking&#45;&gt;BeginDay -->
<g id="edge4" class="edge">
<title>BeginHiking&#45;&gt;BeginDay</title>
<path fill="none" stroke="black" d="M64.41,-36.1C65.17,-43.37 65.43,-52.04 65.17,-60.24"/>
<polygon fill="black" stroke="black" points="61.68,-59.98 64.53,-70.19 68.67,-60.43 61.68,-59.98"/>
</g>
<!-- EndGame -->
<g id="node6" class="node">
<title>EndGame</title>
<ellipse fill="none" stroke="black" cx="153.52" cy="-242" rx="48.28" ry="18"/>
<text text-anchor="middle" x="153.52" y="-236.95" font-family="Times,serif" font-size="14.00">EndGame</text>
</g>
<!-- EndGame&#45;&gt;end -->
<g id="edge5" class="edge">
<title>EndGame&#45;&gt;end</title>
<path fill="none" stroke="black" d="M153.52,-223.84C153.52,-216.64 153.52,-208.02 153.52,-199.7"/>
<polygon fill="black" stroke="black" points="157.02,-199.82 153.52,-189.82 150.02,-199.82 157.02,-199.82"/>
</g>
</g>
</svg>
