<?xml version="1.0" encoding="UTF-8" standalone="no"?>
<!DOCTYPE svg PUBLIC "-//W3C//DTD SVG 1.1//EN"
 "http://www.w3.org/Graphics/SVG/1.1/DTD/svg11.dtd">
<!-- Generated by graphviz version 9.0.0 (20230911.1827)
 -->
<!-- Title: states Pages: 1 -->
<svg width="207pt" height="196pt"
 viewBox="0.00 0.00 206.73 196.00" xmlns="http://www.w3.org/2000/svg" xmlns:xlink="http://www.w3.org/1999/xlink">
<g id="graph0" class="graph" transform="scale(1 1) rotate(0) translate(4 192)">
<title>states</title>
<polygon fill="white" stroke="none" points="-4,4 -4,-192 202.73,-192 202.73,4 -4,4"/>
<!-- start -->
<g id="node1" class="node">
<title>start</title>
<ellipse fill="black" stroke="black" cx="55.45" cy="-170" rx="18" ry="18"/>
</g>
<!-- BeginGame -->
<g id="node3" class="node">
<title>BeginGame</title>
<ellipse fill="none" stroke="black" cx="55.45" cy="-94" rx="55.45" ry="18"/>
<text text-anchor="middle" x="55.45" y="-88.95" font-family="Times,serif" font-size="14.00">BeginGame</text>
</g>
<!-- start&#45;&gt;BeginGame -->
<g id="edge1" class="edge">
<title>start&#45;&gt;BeginGame</title>
<path fill="none" stroke="black" d="M55.45,-151.84C55.45,-143.49 55.45,-133.23 55.45,-123.74"/>
<polygon fill="black" stroke="black" points="58.95,-123.84 55.45,-113.84 51.95,-123.84 58.95,-123.84"/>
</g>
<!-- end -->
<g id="node2" class="node">
<title>end</title>
<ellipse fill="black" stroke="black" cx="150.45" cy="-94" rx="18" ry="18"/>
<ellipse fill="none" stroke="black" cx="150.45" cy="-94" rx="22" ry="22"/>
</g>
<!-- BeginDay -->
<g id="node4" class="node">
<title>BeginDay</title>
<ellipse fill="none" stroke="black" cx="55.45" cy="-18" rx="48.28" ry="18"/>
<text text-anchor="middle" x="55.45" y="-12.95" font-family="Times,serif" font-size="14.00">BeginDay</text>
</g>
<!-- BeginGame&#45;&gt;BeginDay -->
<g id="edge2" class="edge">
<title>BeginGame&#45;&gt;BeginDay</title>
<path fill="none" stroke="black" d="M55.45,-75.84C55.45,-67.49 55.45,-57.23 55.45,-47.74"/>
<polygon fill="black" stroke="black" points="58.95,-47.84 55.45,-37.84 51.95,-47.84 58.95,-47.84"/>
</g>
<!-- BeginDay&#45;&gt;BeginDay -->
<g id="edge3" class="edge">
<title>BeginDay&#45;&gt;BeginDay</title>
<path fill="none" stroke="black" d="M88.18,-31.66C105.74,-33.98 121.73,-29.43 121.73,-18 121.73,-9.07 111.97,-4.34 99.33,-3.8"/>
<polygon fill="black" stroke="black" points="99.52,-0.29 89.7,-4.27 99.85,-7.28 99.52,-0.29"/>
</g>
<!-- EndGame -->
<g id="node5" class="node">
<title>EndGame</title>
<ellipse fill="none" stroke="black" cx="150.45" cy="-170" rx="48.28" ry="18"/>
<text text-anchor="middle" x="150.45" y="-164.95" font-family="Times,serif" font-size="14.00">EndGame</text>
</g>
<!-- EndGame&#45;&gt;end -->
<g id="edge4" class="edge">
<title>EndGame&#45;&gt;end</title>
<path fill="none" stroke="black" d="M150.45,-151.84C150.45,-144.64 150.45,-136.02 150.45,-127.7"/>
<polygon fill="black" stroke="black" points="153.95,-127.82 150.45,-117.82 146.95,-127.82 153.95,-127.82"/>
</g>
</g>
</svg>
