<?xml version="1.0" encoding="UTF-8" standalone="no"?>
<!DOCTYPE svg PUBLIC "-//W3C//DTD SVG 1.1//EN"
 "http://www.w3.org/Graphics/SVG/1.1/DTD/svg11.dtd">
<!-- Generated by graphviz version 9.0.0 (20230911.1827)
 -->
<!-- Title: states Pages: 1 -->
<svg width="280pt" height="556pt"
 viewBox="0.00 0.00 279.80 556.00" xmlns="http://www.w3.org/2000/svg" xmlns:xlink="http://www.w3.org/1999/xlink">
<g id="graph0" class="graph" transform="scale(1 1) rotate(0) translate(4 552)">
<title>states</title>
<polygon fill="white" stroke="none" points="-4,4 -4,-552 275.8,-552 275.8,4 -4,4"/>
<!-- start -->
<g id="node1" class="node">
<title>start</title>
<ellipse fill="black" stroke="black" cx="177.42" cy="-530" rx="18" ry="18"/>
</g>
<!-- BeginGame -->
<g id="node3" class="node">
<title>BeginGame</title>
<ellipse fill="none" stroke="black" cx="177.42" cy="-458" rx="55.45" ry="18"/>
<text text-anchor="middle" x="177.42" y="-452.95" font-family="Times,serif" font-size="14.00">BeginGame</text>
</g>
<!-- start&#45;&gt;BeginGame -->
<g id="edge1" class="edge">
<title>start&#45;&gt;BeginGame</title>
<path fill="none" stroke="black" d="M177.42,-511.7C177.42,-504.41 177.42,-495.73 177.42,-487.54"/>
<polygon fill="black" stroke="black" points="180.92,-487.62 177.42,-477.62 173.92,-487.62 180.92,-487.62"/>
</g>
<!-- end -->
<g id="node2" class="node">
<title>end</title>
<ellipse fill="black" stroke="black" cx="219.42" cy="-22" rx="18" ry="18"/>
<ellipse fill="none" stroke="black" cx="219.42" cy="-22" rx="22" ry="22"/>
</g>
<!-- BeginDay -->
<g id="node4" class="node">
<title>BeginDay</title>
<ellipse fill="none" stroke="black" cx="177.42" cy="-386" rx="48.28" ry="18"/>
<text text-anchor="middle" x="177.42" y="-380.95" font-family="Times,serif" font-size="14.00">BeginDay</text>
</g>
<!-- BeginGame&#45;&gt;BeginDay -->
<g id="edge2" class="edge">
<title>BeginGame&#45;&gt;BeginDay</title>
<path fill="none" stroke="black" d="M177.42,-439.7C177.42,-432.41 177.42,-423.73 177.42,-415.54"/>
<polygon fill="black" stroke="black" points="180.92,-415.62 177.42,-405.62 173.92,-415.62 180.92,-415.62"/>
</g>
<!-- BeginHiking -->
<g id="node5" class="node">
<title>BeginHiking</title>
<ellipse fill="none" stroke="black" cx="134.42" cy="-314" rx="58.52" ry="18"/>
<text text-anchor="middle" x="134.42" y="-308.95" font-family="Times,serif" font-size="14.00">BeginHiking</text>
</g>
<!-- BeginDay&#45;&gt;BeginHiking -->
<g id="edge3" class="edge">
<title>BeginDay&#45;&gt;BeginHiking</title>
<path fill="none" stroke="black" d="M167.01,-368.05C162.1,-360.06 156.13,-350.33 150.64,-341.4"/>
<polygon fill="black" stroke="black" points="153.74,-339.77 145.53,-333.08 147.78,-343.43 153.74,-339.77"/>
</g>
<!-- BeginTown -->
<g id="node6" class="node">
<title>BeginTown</title>
<ellipse fill="none" stroke="black" cx="54.42" cy="-242" rx="54.42" ry="18"/>
<text text-anchor="middle" x="54.42" y="-236.95" font-family="Times,serif" font-size="14.00">BeginTown</text>
</g>
<!-- BeginHiking&#45;&gt;BeginTown -->
<g id="edge4" class="edge">
<title>BeginHiking&#45;&gt;BeginTown</title>
<path fill="none" stroke="black" d="M115.87,-296.76C105.74,-287.91 93.01,-276.77 81.77,-266.93"/>
<polygon fill="black" stroke="black" points="84.12,-264.34 74.29,-260.39 79.51,-269.61 84.12,-264.34"/>
</g>
<!-- BeginMeal -->
<g id="node7" class="node">
<title>BeginMeal</title>
<ellipse fill="none" stroke="black" cx="219.42" cy="-242" rx="52.38" ry="18"/>
<text text-anchor="middle" x="219.42" y="-236.95" font-family="Times,serif" font-size="14.00">BeginMeal</text>
</g>
<!-- BeginHiking&#45;&gt;BeginMeal -->
<g id="edge5" class="edge">
<title>BeginHiking&#45;&gt;BeginMeal</title>
<path fill="none" stroke="black" d="M154.14,-296.76C165.08,-287.75 178.88,-276.39 190.98,-266.43"/>
<polygon fill="black" stroke="black" points="193.15,-269.17 198.65,-260.11 188.7,-263.76 193.15,-269.17"/>
</g>
<!-- PromptTown -->
<g id="node8" class="node">
<title>PromptTown</title>
<ellipse fill="none" stroke="black" cx="95.42" cy="-170" rx="60.05" ry="18"/>
<text text-anchor="middle" x="95.42" y="-164.95" font-family="Times,serif" font-size="14.00">PromptTown</text>
</g>
<!-- BeginTown&#45;&gt;PromptTown -->
<g id="edge6" class="edge">
<title>BeginTown&#45;&gt;PromptTown</title>
<path fill="none" stroke="black" d="M64.35,-224.05C68.98,-216.14 74.61,-206.54 79.79,-197.69"/>
<polygon fill="black" stroke="black" points="82.79,-199.49 84.82,-189.1 76.75,-195.95 82.79,-199.49"/>
</g>
<!-- BeginMeal&#45;&gt;BeginDay -->
<g id="edge10" class="edge">
<title>BeginMeal&#45;&gt;BeginDay</title>
<path fill="none" stroke="black" d="M217.42,-260.39C215.02,-278.56 210.31,-307.77 202.42,-332 199.58,-340.74 195.62,-349.92 191.7,-358.13"/>
<polygon fill="black" stroke="black" points="188.66,-356.39 187.33,-366.91 194.92,-359.52 188.66,-356.39"/>
</g>
<!-- EndGame -->
<g id="node10" class="node">
<title>EndGame</title>
<ellipse fill="none" stroke="black" cx="219.42" cy="-98" rx="48.28" ry="18"/>
<text text-anchor="middle" x="219.42" y="-92.95" font-family="Times,serif" font-size="14.00">EndGame</text>
</g>
<!-- BeginMeal&#45;&gt;EndGame -->
<g id="edge11" class="edge">
<title>BeginMeal&#45;&gt;EndGame</title>
<path fill="none" stroke="black" d="M219.42,-223.59C219.42,-199.61 219.42,-156.14 219.42,-127.42"/>
<polygon fill="black" stroke="black" points="222.92,-127.62 219.42,-117.62 215.92,-127.62 222.92,-127.62"/>
</g>
<!-- PromptTown&#45;&gt;BeginHiking -->
<g id="edge7" class="edge">
<title>PromptTown&#45;&gt;BeginHiking</title>
<path fill="none" stroke="black" d="M103.46,-187.86C108.09,-198.12 113.71,-211.59 117.42,-224 123.36,-243.83 127.69,-266.8 130.49,-284.44"/>
<polygon fill="black" stroke="black" points="127.01,-284.82 131.96,-294.19 133.93,-283.78 127.01,-284.82"/>
</g>
<!-- PromptFood -->
<g id="node9" class="node">
<title>PromptFood</title>
<ellipse fill="none" stroke="black" cx="95.42" cy="-98" rx="57.49" ry="18"/>
<text text-anchor="middle" x="95.42" y="-92.95" font-family="Times,serif" font-size="14.00">PromptFood</text>
</g>
<!-- PromptTown&#45;&gt;PromptFood -->
<g id="edge8" class="edge">
<title>PromptTown&#45;&gt;PromptFood</title>
<path fill="none" stroke="black" d="M89.51,-151.7C88.75,-144.41 88.51,-135.73 88.78,-127.54"/>
<polygon fill="black" stroke="black" points="92.26,-127.82 89.43,-117.61 85.28,-127.36 92.26,-127.82"/>
</g>
<!-- PromptTown&#45;&gt;EndGame -->
<g id="edge9" class="edge">
<title>PromptTown&#45;&gt;EndGame</title>
<path fill="none" stroke="black" d="M122.63,-153.64C140.52,-143.54 164.12,-130.22 183.54,-119.26"/>
<polygon fill="black" stroke="black" points="185.24,-122.32 192.23,-114.35 181.8,-116.22 185.24,-122.32"/>
</g>
<!-- PromptFood&#45;&gt;PromptTown -->
<g id="edge12" class="edge">
<title>PromptFood&#45;&gt;PromptTown</title>
<path fill="none" stroke="black" d="M101.32,-116.1C102.08,-123.37 102.33,-132.04 102.08,-140.24"/>
<polygon fill="black" stroke="black" points="98.59,-139.98 101.44,-150.19 105.57,-140.43 98.59,-139.98"/>
</g>
<!-- EndGame&#45;&gt;end -->
<g id="edge13" class="edge">
<title>EndGame&#45;&gt;end</title>
<path fill="none" stroke="black" d="M219.42,-79.84C219.42,-72.64 219.42,-64.02 219.42,-55.7"/>
<polygon fill="black" stroke="black" points="222.92,-55.82 219.42,-45.82 215.92,-55.82 222.92,-55.82"/>
</g>
</g>
</svg>
